<mxfile host="Electron" modified="2024-06-13T16:13:30.770Z" agent="Mozilla/5.0 (Windows NT 10.0; Win64; x64) AppleWebKit/537.36 (KHTML, like Gecko) draw.io/22.0.3 Chrome/114.0.5735.289 Electron/25.8.4 Safari/537.36" etag="GG78oPQjvnp45AlSrjt-" version="22.0.3" type="device">
  <diagram name="Страница — 1" id="mYYYy5eGX7ncgKMd-Fp1">
    <mxGraphModel dx="2514" dy="2202" grid="1" gridSize="10" guides="1" tooltips="1" connect="1" arrows="1" fold="1" page="1" pageScale="1" pageWidth="827" pageHeight="1169" math="0" shadow="0">
      <root>
        <mxCell id="0" />
        <mxCell id="1" parent="0" />
        <mxCell id="FrwXSZgeFuyhRkYsPB5H-1" value="&lt;b&gt;&lt;font style=&quot;font-size: 25px;&quot;&gt;C#&lt;/font&gt;&lt;/b&gt;" style="rounded=1;whiteSpace=wrap;html=1;" vertex="1" parent="1">
          <mxGeometry x="40" y="100" width="120" height="60" as="geometry" />
        </mxCell>
        <mxCell id="FrwXSZgeFuyhRkYsPB5H-2" value="&lt;b&gt;&lt;font style=&quot;font-size: 25px;&quot;&gt;F#&lt;/font&gt;&lt;/b&gt;" style="rounded=1;whiteSpace=wrap;html=1;" vertex="1" parent="1">
          <mxGeometry x="40" y="180" width="120" height="60" as="geometry" />
        </mxCell>
        <mxCell id="FrwXSZgeFuyhRkYsPB5H-3" value="&lt;b&gt;&lt;font style=&quot;font-size: 25px;&quot;&gt;Visual Basic&lt;/font&gt;&lt;/b&gt;" style="rounded=1;whiteSpace=wrap;html=1;" vertex="1" parent="1">
          <mxGeometry x="40" y="260" width="120" height="60" as="geometry" />
        </mxCell>
        <mxCell id="FrwXSZgeFuyhRkYsPB5H-13" value="" style="endArrow=classic;html=1;rounded=0;exitX=1;exitY=0.5;exitDx=0;exitDy=0;" edge="1" parent="1" source="FrwXSZgeFuyhRkYsPB5H-1">
          <mxGeometry width="50" height="50" relative="1" as="geometry">
            <mxPoint x="390" y="470" as="sourcePoint" />
            <mxPoint x="290" y="130" as="targetPoint" />
          </mxGeometry>
        </mxCell>
        <mxCell id="FrwXSZgeFuyhRkYsPB5H-14" value="" style="endArrow=classic;html=1;rounded=0;exitX=1;exitY=0.5;exitDx=0;exitDy=0;" edge="1" parent="1" source="FrwXSZgeFuyhRkYsPB5H-2">
          <mxGeometry width="50" height="50" relative="1" as="geometry">
            <mxPoint x="390" y="470" as="sourcePoint" />
            <mxPoint x="290" y="210" as="targetPoint" />
          </mxGeometry>
        </mxCell>
        <mxCell id="FrwXSZgeFuyhRkYsPB5H-15" value="" style="endArrow=classic;html=1;rounded=0;exitX=1;exitY=0.5;exitDx=0;exitDy=0;" edge="1" parent="1">
          <mxGeometry width="50" height="50" relative="1" as="geometry">
            <mxPoint x="160" y="289.5" as="sourcePoint" />
            <mxPoint x="290" y="289.5" as="targetPoint" />
          </mxGeometry>
        </mxCell>
        <mxCell id="FrwXSZgeFuyhRkYsPB5H-16" value="C# compiler" style="text;html=1;strokeColor=none;fillColor=none;align=center;verticalAlign=middle;whiteSpace=wrap;rounded=0;" vertex="1" parent="1">
          <mxGeometry x="170" y="100" width="110" height="30" as="geometry" />
        </mxCell>
        <mxCell id="FrwXSZgeFuyhRkYsPB5H-17" value="F# compiler" style="text;html=1;strokeColor=none;fillColor=none;align=center;verticalAlign=middle;whiteSpace=wrap;rounded=0;" vertex="1" parent="1">
          <mxGeometry x="170" y="180" width="110" height="30" as="geometry" />
        </mxCell>
        <mxCell id="FrwXSZgeFuyhRkYsPB5H-18" value="VB compiler" style="text;html=1;strokeColor=none;fillColor=none;align=center;verticalAlign=middle;whiteSpace=wrap;rounded=0;" vertex="1" parent="1">
          <mxGeometry x="170" y="260" width="110" height="30" as="geometry" />
        </mxCell>
        <mxCell id="FrwXSZgeFuyhRkYsPB5H-19" value="&lt;font style=&quot;font-size: 32px;&quot;&gt;IL code&lt;/font&gt;" style="whiteSpace=wrap;html=1;aspect=fixed;" vertex="1" parent="1">
          <mxGeometry x="290" y="110" width="200" height="200" as="geometry" />
        </mxCell>
        <mxCell id="FrwXSZgeFuyhRkYsPB5H-20" value="" style="rounded=0;whiteSpace=wrap;html=1;fillColor=none;" vertex="1" parent="1">
          <mxGeometry x="20" y="80" width="160" height="260" as="geometry" />
        </mxCell>
        <mxCell id="FrwXSZgeFuyhRkYsPB5H-22" value="" style="endArrow=classic;html=1;rounded=0;exitX=0.5;exitY=1;exitDx=0;exitDy=0;" edge="1" parent="1" source="FrwXSZgeFuyhRkYsPB5H-20">
          <mxGeometry width="50" height="50" relative="1" as="geometry">
            <mxPoint x="390" y="460" as="sourcePoint" />
            <mxPoint x="150" y="370" as="targetPoint" />
          </mxGeometry>
        </mxCell>
        <mxCell id="FrwXSZgeFuyhRkYsPB5H-23" value="&lt;font style=&quot;font-size: 15px;&quot;&gt;Все компиляторы должны соответствовать&amp;nbsp;&lt;br&gt;&lt;span style=&quot;font-size: 15px;&quot;&gt;&lt;b&gt;CLS &lt;/b&gt;(Common Language Specification) (&lt;span style=&quot;background-color: initial;&quot;&gt;минимальный набор возможностей, который должны реализо&lt;/span&gt;&lt;span style=&quot;background-color: initial;&quot;&gt;вать производители компиляторов, чтобы их продукты работали в CLR.&lt;/span&gt;)&lt;/span&gt;&lt;/font&gt;" style="text;html=1;strokeColor=none;fillColor=none;align=right;verticalAlign=middle;whiteSpace=wrap;rounded=0;" vertex="1" parent="1">
          <mxGeometry x="-45" y="400" width="290" height="70" as="geometry" />
        </mxCell>
        <mxCell id="FrwXSZgeFuyhRkYsPB5H-25" value="&lt;font style=&quot;font-size: 32px;&quot;&gt;...&lt;/font&gt;" style="text;html=1;align=center;verticalAlign=middle;resizable=0;points=[];autosize=1;strokeColor=none;fillColor=none;" vertex="1" parent="1">
          <mxGeometry x="75" y="300" width="50" height="50" as="geometry" />
        </mxCell>
        <mxCell id="FrwXSZgeFuyhRkYsPB5H-27" value="" style="rounded=0;whiteSpace=wrap;html=1;fillColor=none;" vertex="1" parent="1">
          <mxGeometry x="260" y="65" width="400" height="275" as="geometry" />
        </mxCell>
        <mxCell id="FrwXSZgeFuyhRkYsPB5H-28" value="&lt;font style=&quot;font-size: 40px;&quot;&gt;CLR&lt;/font&gt;" style="text;html=1;align=center;verticalAlign=middle;resizable=0;points=[];autosize=1;strokeColor=none;fillColor=none;" vertex="1" parent="1">
          <mxGeometry x="314" y="-90" width="100" height="60" as="geometry" />
        </mxCell>
        <mxCell id="FrwXSZgeFuyhRkYsPB5H-29" value="&lt;font size=&quot;1&quot; style=&quot;&quot;&gt;&lt;b style=&quot;&quot;&gt;&lt;u style=&quot;font-size: 18px;&quot;&gt;CORE FX&lt;/u&gt;&lt;/b&gt;&lt;/font&gt;" style="text;html=1;align=center;verticalAlign=middle;resizable=0;points=[];autosize=1;strokeColor=none;fillColor=none;" vertex="1" parent="1">
          <mxGeometry x="10" y="25" width="100" height="40" as="geometry" />
        </mxCell>
        <mxCell id="FrwXSZgeFuyhRkYsPB5H-30" value="Методанные" style="rounded=0;whiteSpace=wrap;html=1;" vertex="1" parent="1">
          <mxGeometry x="530" y="185" width="110" height="50" as="geometry" />
        </mxCell>
        <mxCell id="FrwXSZgeFuyhRkYsPB5H-31" value="&lt;span style=&quot;color: rgb(240, 240, 240); font-family: Helvetica; font-size: 22px; font-style: normal; font-variant-ligatures: normal; font-variant-caps: normal; font-weight: 400; letter-spacing: normal; orphans: 2; text-align: center; text-indent: 0px; text-transform: none; widows: 2; word-spacing: 0px; -webkit-text-stroke-width: 0px; background-color: rgb(27, 29, 30); text-decoration-thickness: initial; text-decoration-style: initial; text-decoration-color: initial; float: none; display: inline !important;&quot;&gt;+&lt;/span&gt;" style="text;whiteSpace=wrap;html=1;" vertex="1" parent="1">
          <mxGeometry x="500" y="190" width="50" height="50" as="geometry" />
        </mxCell>
        <mxCell id="FrwXSZgeFuyhRkYsPB5H-33" value="&lt;font style=&quot;font-size: 16px;&quot;&gt;Управляемый модуль&lt;/font&gt;" style="text;html=1;align=center;verticalAlign=middle;resizable=0;points=[];autosize=1;strokeColor=none;fillColor=none;" vertex="1" parent="1">
          <mxGeometry x="480" y="70" width="180" height="30" as="geometry" />
        </mxCell>
        <mxCell id="FrwXSZgeFuyhRkYsPB5H-34" value="" style="whiteSpace=wrap;html=1;aspect=fixed;fillColor=none;" vertex="1" parent="1">
          <mxGeometry x="260" y="27.5" width="550" height="550" as="geometry" />
        </mxCell>
        <mxCell id="FrwXSZgeFuyhRkYsPB5H-35" value="Управляемый модуль" style="rounded=0;whiteSpace=wrap;html=1;" vertex="1" parent="1">
          <mxGeometry x="270" y="360" width="390" height="80" as="geometry" />
        </mxCell>
        <mxCell id="FrwXSZgeFuyhRkYsPB5H-36" value="Управляемый модуль" style="rounded=0;whiteSpace=wrap;html=1;" vertex="1" parent="1">
          <mxGeometry x="270" y="460" width="390" height="80" as="geometry" />
        </mxCell>
        <mxCell id="FrwXSZgeFuyhRkYsPB5H-37" value="&lt;font style=&quot;font-size: 32px;&quot;&gt;...&lt;/font&gt;" style="text;html=1;align=center;verticalAlign=middle;resizable=0;points=[];autosize=1;strokeColor=none;fillColor=none;" vertex="1" parent="1">
          <mxGeometry x="435" y="520" width="50" height="50" as="geometry" />
        </mxCell>
        <mxCell id="FrwXSZgeFuyhRkYsPB5H-38" value="Манифест" style="rounded=0;whiteSpace=wrap;html=1;" vertex="1" parent="1">
          <mxGeometry x="670" y="65" width="130" height="475" as="geometry" />
        </mxCell>
        <mxCell id="FrwXSZgeFuyhRkYsPB5H-39" value="&lt;font style=&quot;font-size: 17px;&quot;&gt;Сборка&lt;/font&gt;" style="text;html=1;align=center;verticalAlign=middle;resizable=0;points=[];autosize=1;strokeColor=none;fillColor=none;" vertex="1" parent="1">
          <mxGeometry x="710" width="80" height="30" as="geometry" />
        </mxCell>
        <mxCell id="FrwXSZgeFuyhRkYsPB5H-41" value="" style="endArrow=classic;html=1;rounded=0;exitX=1;exitY=0.5;exitDx=0;exitDy=0;" edge="1" parent="1" source="FrwXSZgeFuyhRkYsPB5H-34">
          <mxGeometry width="50" height="50" relative="1" as="geometry">
            <mxPoint x="390" y="380" as="sourcePoint" />
            <mxPoint x="940" y="303" as="targetPoint" />
          </mxGeometry>
        </mxCell>
        <mxCell id="FrwXSZgeFuyhRkYsPB5H-42" value="&lt;font style=&quot;font-size: 15px;&quot;&gt;JIT компилятор&lt;/font&gt;" style="text;html=1;align=center;verticalAlign=middle;resizable=0;points=[];autosize=1;strokeColor=none;fillColor=none;" vertex="1" parent="1">
          <mxGeometry x="810" y="270" width="130" height="30" as="geometry" />
        </mxCell>
        <mxCell id="FrwXSZgeFuyhRkYsPB5H-43" value="&lt;font style=&quot;font-size: 16px;&quot;&gt;Команды процессора&lt;/font&gt;" style="rounded=0;whiteSpace=wrap;html=1;" vertex="1" parent="1">
          <mxGeometry x="940" y="262.5" width="190" height="80" as="geometry" />
        </mxCell>
        <mxCell id="FrwXSZgeFuyhRkYsPB5H-48" value="" style="endArrow=classic;html=1;rounded=0;entryX=0.5;entryY=0;entryDx=0;entryDy=0;exitX=1;exitY=0.5;exitDx=0;exitDy=0;" edge="1" parent="1" source="FrwXSZgeFuyhRkYsPB5H-34" target="FrwXSZgeFuyhRkYsPB5H-50">
          <mxGeometry width="50" height="50" relative="1" as="geometry">
            <mxPoint x="810" y="300" as="sourcePoint" />
            <mxPoint x="1010" y="150" as="targetPoint" />
            <Array as="points">
              <mxPoint x="810" y="210" />
              <mxPoint x="1250" y="210" />
            </Array>
          </mxGeometry>
        </mxCell>
        <mxCell id="FrwXSZgeFuyhRkYsPB5H-49" value="*Если команда уже была выполнена до&lt;br&gt;&amp;nbsp;этого, то она просто возьмется из памяти&amp;nbsp;" style="text;html=1;align=center;verticalAlign=middle;resizable=0;points=[];autosize=1;strokeColor=none;fillColor=none;" vertex="1" parent="1">
          <mxGeometry x="900" y="170" width="260" height="40" as="geometry" />
        </mxCell>
        <mxCell id="FrwXSZgeFuyhRkYsPB5H-50" value="Динамичекая память" style="rounded=0;whiteSpace=wrap;html=1;" vertex="1" parent="1">
          <mxGeometry x="1190" y="272.5" width="120" height="60" as="geometry" />
        </mxCell>
        <mxCell id="FrwXSZgeFuyhRkYsPB5H-51" value="" style="endArrow=classic;html=1;rounded=0;exitX=1;exitY=0.5;exitDx=0;exitDy=0;entryX=0;entryY=0.5;entryDx=0;entryDy=0;" edge="1" parent="1" target="FrwXSZgeFuyhRkYsPB5H-50">
          <mxGeometry width="50" height="50" relative="1" as="geometry">
            <mxPoint x="1130" y="301.91" as="sourcePoint" />
            <mxPoint x="1260" y="301.91" as="targetPoint" />
          </mxGeometry>
        </mxCell>
        <mxCell id="FrwXSZgeFuyhRkYsPB5H-52" value="Save" style="text;html=1;align=center;verticalAlign=middle;resizable=0;points=[];autosize=1;strokeColor=none;fillColor=none;" vertex="1" parent="1">
          <mxGeometry x="1130" y="280" width="50" height="30" as="geometry" />
        </mxCell>
        <mxCell id="FrwXSZgeFuyhRkYsPB5H-53" value="" style="endArrow=classic;html=1;rounded=0;exitX=0.5;exitY=1;exitDx=0;exitDy=0;entryX=0.5;entryY=1;entryDx=0;entryDy=0;" edge="1" parent="1" source="FrwXSZgeFuyhRkYsPB5H-50" target="FrwXSZgeFuyhRkYsPB5H-43">
          <mxGeometry width="50" height="50" relative="1" as="geometry">
            <mxPoint x="970" y="200" as="sourcePoint" />
            <mxPoint x="1020" y="150" as="targetPoint" />
            <Array as="points">
              <mxPoint x="1250" y="380" />
              <mxPoint x="1035" y="380" />
            </Array>
          </mxGeometry>
        </mxCell>
        <mxCell id="FrwXSZgeFuyhRkYsPB5H-54" value="&lt;span style=&quot;color: rgb(240, 240, 240); font-family: Helvetica; font-size: 15px; font-style: normal; font-variant-ligatures: normal; font-variant-caps: normal; letter-spacing: normal; orphans: 2; text-align: right; text-indent: 0px; text-transform: none; widows: 2; word-spacing: 0px; -webkit-text-stroke-width: 0px; background-color: rgb(27, 29, 30); text-decoration-thickness: initial; text-decoration-style: initial; text-decoration-color: initial; float: none; display: inline !important;&quot;&gt;&lt;b&gt;&lt;u&gt;Common Type System&lt;/u&gt;&lt;/b&gt;&lt;/span&gt;" style="text;whiteSpace=wrap;html=1;" vertex="1" parent="1">
          <mxGeometry x="20" y="50" width="180" height="40" as="geometry" />
        </mxCell>
        <mxCell id="FrwXSZgeFuyhRkYsPB5H-56" value="" style="rounded=0;whiteSpace=wrap;html=1;fillColor=none;" vertex="1" parent="1">
          <mxGeometry x="-80" y="-30" width="1430" height="630" as="geometry" />
        </mxCell>
      </root>
    </mxGraphModel>
  </diagram>
</mxfile>
